<svg xmlns="http://www.w3.org/2000/svg" viewBox="0 0 157.73 153.1"><defs><style>.a{fill:#d02217;}.b{fill:none;stroke:#fff;stroke-linejoin:round;stroke-width:3px;}</style></defs><title>i-2</title><path class="a" d="M8.59,39.17C19.2,18.3,46.84,1.65,69.53.18c71.14-4.59,101.12,78,83.07,114.51C110.29,200.37-36.77,128.3,8.59,39.17Z"/><circle class="b" cx="78.87" cy="74.91" r="44.66"/><line class="b" x1="34.21" y1="74.91" x2="29.59" y2="74.91"/><line class="b" x1="78.87" y1="30.25" x2="78.87" y2="25.63"/><line class="b" x1="123.52" y1="74.91" x2="128.14" y2="74.91"/><line class="b" x1="78.87" y1="119.57" x2="78.87" y2="124.19"/><circle class="b" cx="78.87" cy="74.91" r="36.67"/><line class="b" x1="42.2" y1="74.91" x2="49.53" y2="74.91"/><line class="b" x1="78.87" y1="38.24" x2="78.87" y2="45.57"/><line class="b" x1="115.54" y1="74.91" x2="108.2" y2="74.91"/><line class="b" x1="78.87" y1="111.58" x2="78.87" y2="104.25"/><path class="b" d="M75,71.13v4.39h0C69.64,78.6,62,78.82,62,86.51v6.92"/><path class="b" d="M82.78,71.13v4.39h0c5.38,3.08,13.07,3.3,13.07,11v6.92"/><path class="b" d="M85.79,61.13c0-4.67-2.25-6.92-6.92-6.92S72,56.46,72,61.13v3.08c.76,5.38,3.07,6.92,3.07,6.92a10,10,0,0,0,7.69,0s2.31-1.54,3.08-6.92Z"/><line class="b" x1="68.1" y1="93.43" x2="68.1" y2="87.28"/><line class="b" x1="89.63" y1="93.43" x2="89.63" y2="87.28"/></svg>