<?xml version="1.0" encoding="UTF-8"?>
<svg width="47px" height="45px" viewBox="0 0 47 45" version="1.1" xmlns="http://www.w3.org/2000/svg" xmlns:xlink="http://www.w3.org/1999/xlink">
    <!-- Generator: Sketch 58 (84663) - https://sketch.com -->
    <title>Credibility Icon 2</title>
    <desc>Created with Sketch.</desc>
    <g id="Page-1" stroke="none" stroke-width="1" fill="none" fill-rule="evenodd">
        <g id="Credibility-Icon-2">
            <path d="M16.8648842,1.76134635 C7.42090952,5.55387416 -1.31642374,15.3450894 1.23672771,26.2280269 C3.78987915,37.1109644 12.9411502,43.8518571 17.9511492,44.6642173 C22.9611482,45.4765775 38.3681987,43.9590605 43.3110471,39.4545389 C48.2538955,34.9500172 47.6269562,19.4544867 43.3110471,12.1159323 C38.995138,4.77737793 26.3088589,-2.03118146 16.8648842,1.76134635 Z" id="Path" fill="#D21F04" fill-rule="nonzero"></path>
            <g id="Group" stroke-linecap="round" stroke-linejoin="round" transform="translate(7.020002, 4.678876)" stroke="#000000" stroke-width="2">
                <polyline id="Path" points="20.6942837 34.3211238 0.97999802 34.3211238 0.97999802 0.32112385 30.979998 0.32112385 30.979998 12.8474396"></polyline>
                <path d="M6.97999802,9.82112385 L21.979998,9.82112385" id="Path"></path>
                <path d="M6.97999802,17.8211238 L16.979998,17.8211238" id="Path"></path>
                <path d="M6.97999802,25.8211238 L16.979998,25.8211238" id="Path"></path>
                <polyline id="Path" points="35.979998 27.3211238 35.979998 39.3211238 30.979998 36.6127278 25.979998 39.3211238 25.979998 27.3211238"></polyline>
                <circle id="Oval" cx="30.979998" cy="21.321124" r="8"></circle>
            </g>
        </g>
    </g>
</svg>