<svg xmlns="http://www.w3.org/2000/svg" viewBox="0 0 157.93 155.94"><defs><style>.a{fill:#d02217;}.b{fill:none;stroke:#fff;stroke-linecap:round;stroke-linejoin:round;stroke-width:3px;}.c{fill:#fff;}</style></defs><title>i-6</title><path class="a" d="M37.55,6.31c72-33.25,163.4,73.15,97.88,126.54-26.08,21.25-66,27-90.15,20.6C-21.38,135.68-6.1,26.46,37.55,6.31Z"/><path class="b" d="M115.15,78.61c-.29-16.16-19.11-28.92-42-28.51s-41.25,13.86-41,30c.17,9.22,6.37,17.33,15.92,22.52-1.68,3.86-5.32,10.23-11.83,12.78,9.07,2.39,18.75-2.54,23.37-8.38a56.83,56.83,0,0,0,14.57,1.58C97.11,108.2,115.45,94.77,115.15,78.61Z"/><polyline class="b" points="43.15 72.28 46.97 87.01 48.98 86.95 51.26 73.07 52.77 72.98 56.22 86.94 57.97 86.89 60.4 72.48"/><polyline class="b" points="80.39 71.84 84.21 86.56 86.21 86.5 88.5 72.62 90 72.53 93.45 86.5 95.2 86.45 97.63 72.04"/><ellipse class="b" cx="70.59" cy="79.39" rx="6.17" ry="7.55"/><line class="b" x1="102.75" y1="72.15" x2="103.16" y2="82.12"/><circle class="c" cx="103.29" cy="86" r="1.83"/></svg>