<svg xmlns="http://www.w3.org/2000/svg" viewBox="0 0 86.39 66.92"><defs><style>.a{fill:#d02217;}.b{fill:#ea918f;}.c{fill:#fff;}.d{fill:none;stroke:#fff;stroke-linejoin:round;}</style></defs><title>Get Results-9</title><path class="a" d="M77.47,34.81c0,12.44-8.94,22-24,22a23.34,23.34,0,0,1,0-46.68C66.24,10.12,77.47,21.92,77.47,34.81Z"/><circle class="b" cx="21.44" cy="32.91" r="12.51"/><path class="c" d="M23.28,34.25V35a1.88,1.88,0,0,1-2,2.06,1.88,1.88,0,0,1-2-2.06v-.25l1.22-.12v.27c0,.67.29,1,.78,1a.73.73,0,0,0,.78-.84v-.88c0-.67-.29-1-1-1h-.5V32H21c.67,0,1-.29,1-1v-.65a.67.67,0,0,0-.72-.76c-.46,0-.72.27-.72.88v.19H19.27v-.29a1.82,1.82,0,0,1,2-2,1.83,1.83,0,0,1,2,2V31a1.66,1.66,0,0,1-.9,1.6A1.68,1.68,0,0,1,23.28,34.25Z"/><path class="d" d="M54.06,33.35a10.21,10.21,0,0,1-4.82-8.78,12.72,12.72,0,0,1,.88-5.26H62.4a11.76,11.76,0,0,1,.87,4.83,10.52,10.52,0,0,1-4.82,9.21"/><rect class="d" x="52.31" y="43.87" width="7.9" height="2.63" rx="0.88" ry="0.88"/><line class="d" x1="60.2" y1="35.98" x2="58.45" y2="35.98"/><polyline class="d" points="50.67 31.04 47.48 34.22 45.73 34.22"/><rect class="d" x="41.34" y="34.22" width="4.39" height="9.65"/><line class="d" x1="41.34" y1="34.22" x2="39.15" y2="34.22"/><line class="d" x1="41.34" y1="43.87" x2="39.15" y2="43.87"/><path class="d" d="M60.2,36a1.32,1.32,0,1,1,0,2.63"/><line class="d" x1="60.2" y1="38.61" x2="58.45" y2="38.61"/><path class="d" d="M52.75,33.35h6.58a1.32,1.32,0,0,1,0,2.63"/><path class="d" d="M46,43h2.33l1.76.87h8.77a1.32,1.32,0,0,0,0-2.63"/><path class="d" d="M58.45,41.24h.88a1.32,1.32,0,0,0,0-2.63"/><polygon class="d" points="56.26 21.94 57.13 24.14 59.33 24.14 57.57 25.45 58.45 27.64 56.26 26.33 54.06 27.64 54.94 25.45 53.19 24.14 55.38 24.14 56.26 21.94"/><path class="d" d="M65,24.57V23.26h1.75v1.31c0,5.71-6.14,6.15-7.45,8.34"/><path class="d" d="M47.48,24.57V23.26H45.73v1.31c0,5.71,6.14,6.15,7.46,8.34"/></svg>