<svg xmlns="http://www.w3.org/2000/svg" viewBox="0 0 157.93 155.94"><defs><style>.a{fill:#d02217;}.b{fill:none;stroke:#fff;stroke-linejoin:round;stroke-width:3px;}</style></defs><title>i-3</title><path class="a" d="M37.55,6.31c72-33.25,163.4,73.15,97.88,126.54-26.08,21.25-66,27-90.15,20.6C-21.38,135.68-6.1,26.46,37.55,6.31Z"/><path class="b" d="M82.94,93.29V76.09a2.6,2.6,0,0,0-2.59-2.59h0a2.6,2.6,0,0,0-2.59,2.59v21"/><path class="b" d="M88.12,88.75V84.32a2.6,2.6,0,0,0-2.59-2.59h0a2.6,2.6,0,0,0-2.59,2.59v4.43"/><path class="b" d="M93.3,93.29V87a2.6,2.6,0,0,0-2.59-2.59h0A2.6,2.6,0,0,0,88.12,87v6.25"/><path class="b" d="M93.3,92.2V89.76a2.6,2.6,0,0,1,2.59-2.59h0a2.59,2.59,0,0,1,2.59,2.59v14.73a2.52,2.52,0,0,1-.74,1.77l-2.64,2.57a2.13,2.13,0,0,0-.63,1.5"/><path class="b" d="M77.76,92.4H74.11a1.75,1.75,0,0,0-1.75,1.75v11.53a2.38,2.38,0,0,0,1.38,2.15l2.12,1A2.38,2.38,0,0,1,77.24,111"/><polyline class="b" points="74.95 122.03 74.95 111.49 96.98 111.49 96.98 122.03"/><path class="b" d="M72.36,85H52.65L40,95.88a.16.16,0,0,1-.26-.11V46.57a.36.36,0,0,1,.36-.36h64.3a.36.36,0,0,1,.36.36V84.68a.36.36,0,0,1-.36.36h-3.5"/><polygon class="b" points="66.33 56.65 66.33 75.29 81.86 66.23 66.33 56.65"/></svg>