<svg xmlns="http://www.w3.org/2000/svg" viewBox="0 0 162.4 157.38"><defs><style>.a{fill:#d02217;}.b{fill:none;stroke:#fff;stroke-linejoin:round;stroke-width:3px;}</style></defs><title>i-1</title><path class="a" d="M46.81,1.25C74-7.4,162.4,29.81,162.4,87.3c0,52.42-70.94,78.62-116.88,67.6C12.47,147,2.47,109,.58,92.77-3.47,58,14,11.7,46.81,1.25Z"/><path class="b" d="M119.75,70.08H88.25l-7.7,6.6a.1.1,0,0,1-.16-.07V46.66a.22.22,0,0,1,.22-.22h39.14a.22.22,0,0,1,.22.22v23.2A.22.22,0,0,1,119.75,70.08Z"/><polygon class="b" points="96.58 52.8 96.58 64.14 106.03 58.63 96.58 52.8"/><path class="b" d="M94.87,89.89c0,3.86-2.17,7.17-5.52,7.17s-5.51-3.31-5.51-7.17,1.1-6.07,5.51-6.07S94.87,86,94.87,89.89Z"/><line class="b" x1="80.53" y1="99.26" x2="86.04" y2="95.95"/><path class="b" d="M92.66,96l7.72,4.41v2.21c0,1.83-1.1,3.31-2.21,3.31H91.56"/><path class="b" d="M37.51,89.89c0,3.86,2.17,7.17,5.52,7.17s5.51-3.31,5.51-7.17-1.1-6.07-5.51-6.07S37.51,86,37.51,89.89Z"/><line class="b" x1="51.85" y1="99.26" x2="46.34" y2="95.95"/><path class="b" d="M39.72,96,32,100.36v2.21c0,1.83,1.1,3.31,2.2,3.31h6.62"/><path class="b" d="M60.67,93.75v6.3h0c-7.72,4.41-18.75,4.73-18.75,15.76v9.92"/><path class="b" d="M71.8,93.75v6.3h0c7.72,4.41,18.75,4.73,18.75,15.76v9.92"/><path class="b" d="M76.12,79.41c0-6.7-3.23-9.93-9.93-9.93s-9.93,3.23-9.93,9.93v4.41c1.1,7.72,4.41,9.93,4.41,9.93a14.38,14.38,0,0,0,11,0s3.31-2.21,4.42-9.93Z"/><line class="b" x1="50.75" y1="125.73" x2="50.75" y2="116.91"/><line class="b" x1="81.63" y1="125.73" x2="81.63" y2="116.91"/><polyline class="b" points="60.67 100.05 66.19 106.07 71.8 100.05"/></svg>