<svg xmlns="http://www.w3.org/2000/svg" viewBox="0 0 90.09 60.45"><defs><style>.a{fill:#d02217;}.b{fill:#ea918f;}.c{fill:#fff;}.d{fill:none;stroke:#fff;stroke-linecap:round;stroke-linejoin:round;}</style></defs><title>i-7 copy 3</title><path class="a" d="M79.29,32.12c0,12.43-8.94,22-24,22a23.34,23.34,0,0,1,0-46.67C68.07,7.43,79.29,19.23,79.29,32.12Z"/><circle class="b" cx="23.26" cy="30.22" r="12.51"/><path class="c" d="M22.59,33.08h2.52v1.2h-4V33.17l1.85-3a4.16,4.16,0,0,0,.9-2.33c0-.58-.27-.91-.76-.91s-.77.33-.77.91v.5H21.08V28a1.94,1.94,0,0,1,2-2.21,1.9,1.9,0,0,1,2,2.08,5.38,5.38,0,0,1-1.13,3Z"/><polygon class="d" points="48.79 23.63 48.79 27.34 51.89 25.54 48.79 23.63"/><polygon class="d" points="53.56 34.4 53.56 38.11 56.65 36.31 53.56 34.4"/><polyline class="d" points="63.35 31.32 65.62 30 62.52 28.09 62.52 30.27"/><polygon class="d" points="46.86 30.39 46.86 42.75 59.92 42.75 63.32 40.11 63.32 30.39 46.86 30.39"/><polyline class="d" points="62.93 40.11 59.77 40.11 59.77 42.36"/><polyline class="d" points="63.32 36.57 68.16 36.57 71.57 33.94 71.57 24.21 55.1 24.21 55.1 30.39"/><polyline class="d" points="71.17 33.94 68.02 33.94 68.02 36.18"/><polyline class="d" points="59.02 24.21 59.02 20.05 42.56 20.05 42.56 31.4 46.63 31.4"/></svg>