<svg xmlns="http://www.w3.org/2000/svg" viewBox="0 0 162.4 157.38"><defs><style>.a{fill:#d02217;}.b{fill:none;stroke:#fff;stroke-linecap:round;stroke-linejoin:round;stroke-width:3px;}</style></defs><title>i-5</title><path class="a" d="M46.81,1.25C74-7.4,162.4,29.81,162.4,87.3c0,52.42-70.94,78.62-116.88,67.6C12.47,147,2.47,109,.58,92.77-3.47,58,14,11.7,46.81,1.25Z"/><path class="b" d="M82.09,98.2l5.28,23.6a3.87,3.87,0,0,1-2.89,4.61l-3.59.85a3.87,3.87,0,0,1-4.65-2.83L70.33,100.8"/><path class="b" d="M84.17,90.91l1,4.71a1.19,1.19,0,0,1-.91,1.43L67.84,100.7a1.19,1.19,0,0,1-1.43-.91l-1-4.71"/><circle class="b" cx="68.51" cy="64.78" r="30.1"/><circle class="b" cx="68.51" cy="64.78" r="23.7"/><path class="b" d="M50.88,68.69A18.06,18.06,0,0,1,64.61,47.16"/></svg>