<svg xmlns="http://www.w3.org/2000/svg" viewBox="0 0 157.73 153.1"><defs><style>.a{fill:#d02217;}.b{fill:none;stroke:#fff;stroke-linecap:round;stroke-linejoin:round;stroke-width:3px;}</style></defs><title>i-4</title><path class="a" d="M8.59,39.17C19.2,18.3,46.84,1.65,69.53.18c71.14-4.59,101.12,78,83.07,114.51C110.29,200.37-36.77,128.3,8.59,39.17Z"/><path class="b" d="M71.77,103.21a2.79,2.79,0,0,1-2.88,2.69H61.68l5.77,10.77L44.38,105.9H37.17a2.79,2.79,0,0,1-2.88-2.69V70.89a2.8,2.8,0,0,1,2.88-2.7H68.89a2.8,2.8,0,0,1,2.88,2.7Z"/><path class="b" d="M92,54.73h28.84a2.79,2.79,0,0,1,2.88,2.69V89.74a2.79,2.79,0,0,1-2.88,2.69h-7.21L90.51,103.21l5.77-10.78H89.07a2.79,2.79,0,0,1-2.88-2.69V73.58"/><path class="b" d="M54.47,67V38.57a2.8,2.8,0,0,1,2.89-2.7H89.07A2.8,2.8,0,0,1,92,38.57V70.89a2.79,2.79,0,0,1-2.88,2.69H81.86l-8.65,10.2"/><polygon class="b" points="69.42 46.81 69.42 59.83 80.26 53.51 69.42 46.81"/><polygon class="b" points="47.61 81.44 47.61 94.46 58.45 88.13 47.61 81.44"/><polygon class="b" points="101.78 68.19 101.78 81.21 112.62 74.89 101.78 68.19"/></svg>