<svg xmlns="http://www.w3.org/2000/svg" viewBox="0 0 86.39 66.92"><defs><style>.a{fill:#d02217;}.b{fill:#ea918f;}.c{fill:#fff;}.d,.e{fill:none;stroke:#fff;stroke-linejoin:round;}.e{stroke-linecap:round;}</style></defs><title>Get Inspired-14</title><path class="a" d="M77.47,34.81c0,12.44-8.94,22-24,22a23.34,23.34,0,0,1,0-46.68C66.24,10.12,77.47,21.92,77.47,34.81Z"/><circle class="b" cx="21.44" cy="32.91" r="12.51"/><path class="c" d="M20.76,35.77h2.52V37h-4v-1.1l1.86-3a4.14,4.14,0,0,0,.9-2.32c0-.59-.27-.91-.77-.91s-.76.32-.76.91v.49H19.25v-.4a2,2,0,0,1,2-2.2,1.88,1.88,0,0,1,2,2.07,5.33,5.33,0,0,1-1.12,3Z"/><path class="d" d="M43.17,44.75V41.14a.8.8,0,0,1,.54-.75l4.42-1.51V36.4"/><path class="d" d="M57,44.75V41.14a.8.8,0,0,0-.54-.75l-4.42-1.51V36.4"/><path class="d" d="M53.45,30.76a3.35,3.35,0,0,0-6.69,0l.32,4a1.57,1.57,0,0,0,.84,1.28l1.62,1.07h1.07l1.68-1.07a1.57,1.57,0,0,0,.84-1.28Z"/><polyline class="d" points="48.13 38.88 49.39 40.3 50.87 40.3 52.12 38.88"/><line class="d" x1="41.52" y1="44.75" x2="58.65" y2="44.75"/><path class="e" d="M59.85,31.12h1.79a4.61,4.61,0,0,1,1-2.92,3.64,3.64,0,0,0-2.77-5.93"/><path class="e" d="M59.85,31.12H58.07a4.61,4.61,0,0,0-1-2.92,3.63,3.63,0,0,1,2.77-5.93"/><path class="e" d="M61.64,32v.85a.3.3,0,0,1-.3.3h-3a.31.31,0,0,1-.3-.3V32"/><line class="e" x1="55.27" y1="28.69" x2="55.76" y2="28.38"/><line class="e" x1="53.45" y1="25.98" x2="54.67" y2="25.98"/><line class="e" x1="55.27" y1="23.26" x2="55.67" y2="23.51"/><line class="e" x1="56.66" y1="20.4" x2="57.15" y2="21.21"/><line class="e" x1="59.93" y1="20.32" x2="59.93" y2="20.84"/><line class="e" x1="62.56" y1="21.38" x2="63.18" y2="20.32"/><line class="e" x1="64.13" y1="23.51" x2="64.59" y2="23.21"/><line class="e" x1="65.16" y1="25.98" x2="66.42" y2="25.98"/><line class="e" x1="64.18" y1="28.43" x2="64.59" y2="28.69"/><line class="e" x1="61.64" y1="31.13" x2="61.64" y2="31.95"/><line class="e" x1="58.07" y1="31.11" x2="58.06" y2="31.95"/></svg>