<?xml version="1.0" encoding="UTF-8"?><svg id="Layer_2" xmlns="http://www.w3.org/2000/svg" xmlns:xlink="http://www.w3.org/1999/xlink" viewBox="0 0 183.07 47.99"><defs><style>.cls-1{fill:none;}.cls-2{clip-path:url(#clippath);}.cls-3{fill:#fff;}.cls-4{fill:#cf1817;}</style><clipPath id="clippath"><rect class="cls-1" width="183.07" height="47.99"/></clipPath></defs><g id="logos-Page_2"><g><g class="cls-2"><path class="cls-4" d="M171.41,47.99H0V11.66C0,5.22,5.22,0,11.66,0H183.07V36.33c0,6.44-5.22,11.66-11.66,11.66h0Z"/></g><path class="cls-3" d="M33.22,25.75c-1.29,3.93-5,6.77-9.35,6.77-5.42,0-9.83-4.41-9.83-9.83s4.41-9.83,9.83-9.83c4.35,0,8.03,2.81,9.32,6.71h-4.69c-.79-1.71-2.7-2.78-4.63-2.78-3.09,0-5.56,2.67-5.56,5.9s2.47,5.9,5.56,5.9c1.97,0,3.88-1.15,4.66-2.84h4.69Z"/><path class="cls-3" d="M39.82,16.45v5.65h2.25c1.24,0,2.53-1.01,2.53-2.84s-1.29-2.81-2.53-2.81h-2.25Zm0,15.78h-4.21V13.14h7.16c3.09,0,5.84,2.5,5.84,6.12,0,3.23-1.94,5.36-4.35,5.95l5.48,7.02h-5.34l-4.55-6.82h-.03v6.82h0Z"/><polygon class="cls-3" points="62.15 32.24 51.08 32.24 51.08 13.14 62.15 13.14 62.15 16.96 55.29 16.96 55.29 20.75 61.86 20.75 61.86 24.57 55.29 24.57 55.29 28.42 62.15 28.42 62.15 32.24 62.15 32.24"/><path class="cls-3" d="M73.49,18.14l-2.42,6.8h4.83l-2.42-6.8h0Zm5.03,14.1l-1.38-3.85h-7.27l-1.38,3.85h-4.52l7.75-19.1h3.57l7.75,19.1h-4.52Z"/><polygon class="cls-3" points="90.4 32.24 86.19 32.24 86.19 16.96 80.74 16.96 80.74 13.14 95.85 13.14 95.85 16.96 90.4 16.96 90.4 32.24 90.4 32.24"/><polygon class="cls-3" points="115.06 32.24 111.43 32.24 103.71 13.14 108.26 13.14 112.19 23.87 113.23 26.87 114.27 23.87 118.23 13.14 122.78 13.14 115.06 32.24 115.06 32.24"/><polygon class="cls-3" points="135.67 32.24 124.61 32.24 124.61 13.14 135.67 13.14 135.67 16.96 128.82 16.96 128.82 20.75 135.39 20.75 135.39 24.57 128.82 24.57 128.82 28.42 135.67 28.42 135.67 32.24 135.67 32.24"/><polygon class="cls-3" points="141.4 15.13 138.65 15.13 138.65 13.42 143.37 12.92 143.37 32.24 141.4 32.24 141.4 15.13 141.4 15.13"/><polygon class="cls-3" points="149.46 15.13 146.71 15.13 146.71 13.42 151.43 12.92 151.43 32.24 149.46 32.24 149.46 15.13 149.46 15.13"/><path class="cls-3" d="M157.27,26.31h7.3V15.28l-7.3,11.04h0Zm9.35,5.93h-2.05v-3.9h-10.78l10.05-15.19h2.75l.03,13.17h2.42v2.02h-2.42v3.9h0Z"/><path class="cls-3" d="M100.59,12.58s0,3.2-2.66,7.68c-1.83,3.07-1.79,5.61,2.16,12.07,0,0-.7-3.72,1.37-6.21,3.23-3.87,2.74-8.67-.87-13.55h0Z"/><path class="cls-3" d="M101.15,13.42s.21,3.2-2.45,7.68c-1.83,3.07-2.11,5.51,1.84,11.98,0,0-.38-3.62,1.7-6.11,3.23-3.87,2.53-8.67-1.08-13.55h0Z"/><path class="cls-3" d="M100.59,12.58s.21,3.2-2.45,7.68c-1.83,3.07-2,5.61,1.95,12.07,0,0-.49-3.72,1.58-6.21,3.23-3.87,2.53-8.67-1.08-13.55h0Z"/></g></g></svg>