<svg xmlns="http://www.w3.org/2000/svg" viewBox="0 0 90.09 60.45"><defs><style>.a{fill:#d02217;}.b{fill:#ea918f;}.c{fill:#fff;}.d{fill:none;stroke:#fff;stroke-linecap:round;stroke-linejoin:round;}</style></defs><title>i-7 copy 2</title><path class="a" d="M80.87,31.75c0,12.43-8.94,22-24,22a23.34,23.34,0,0,1,0-46.68C69.65,7.06,80.87,18.86,80.87,31.75Z"/><circle class="b" cx="24.84" cy="29.85" r="12.51"/><path class="c" d="M26.69,31.19V32a1.89,1.89,0,0,1-2,2.07,1.89,1.89,0,0,1-2-2.07v-.25l1.23-.12v.28c0,.67.28,1,.78,1a.73.73,0,0,0,.78-.84v-.88c0-.67-.29-1-1-1H24V29h.42c.67,0,1-.29,1-1v-.65a.67.67,0,0,0-.72-.76c-.45,0-.72.27-.72.88v.19H22.67v-.29a1.83,1.83,0,0,1,2-2,1.82,1.82,0,0,1,2,2v.55a1.67,1.67,0,0,1-.9,1.61A1.68,1.68,0,0,1,26.69,31.19Z"/><polyline class="d" points="48.74 28.55 48.74 17.97 63.63 17.97 66.76 21.11 66.76 28.55"/><polyline class="d" points="47.17 39.13 47.17 37.95 45.61 33.25 46.81 29.72 48.74 28.55"/><path class="d" d="M51.88,39.13v-4.7l-.79-3.53V28.55A1.15,1.15,0,0,0,50,27.37a1.21,1.21,0,0,0-1.21,1.18v3.13l-.39,2.75"/><polyline class="d" points="46.39 42.65 46.39 39.13 52.66 39.13 52.66 42.65"/><polyline class="d" points="68.33 39.13 68.33 37.95 69.9 33.25 68.69 29.72 66.76 28.55"/><path class="d" d="M63.63,39.13v-4.7l.78-3.53V28.55a1.15,1.15,0,0,1,1.14-1.18,1.21,1.21,0,0,1,1.21,1.18v3.13l.4,2.75"/><path class="d" d="M62.85,42.65V39.52a.38.38,0,0,1,.39-.39h5.09a.38.38,0,0,1,.39.39v3.13"/><polyline class="d" points="66.76 21.11 63.63 21.11 63.63 17.97"/><line class="d" x1="51.83" y1="23.26" x2="58.33" y2="23.26"/><line class="d" x1="51.92" y1="25.45" x2="64.98" y2="25.45"/><line class="d" x1="56.58" y1="37.48" x2="56.58" y2="29.64"/><line class="d" x1="54.52" y1="37.43" x2="54.52" y2="31.94"/><line class="d" x1="58.45" y1="37.43" x2="58.45" y2="31.94"/><line class="d" x1="60.71" y1="37.48" x2="60.71" y2="30.9"/><line class="d" x1="53.48" y1="37.74" x2="62.13" y2="37.74"/></svg>