<svg xmlns="http://www.w3.org/2000/svg" viewBox="0 0 90.09 60.45"><defs><style>.a{fill:#d02217;}.b{fill:#ea918f;}.c{fill:#fff;}.d{fill:none;stroke:#fff;stroke-linecap:round;stroke-linejoin:round;}</style></defs><title>i-7</title><path class="a" d="M78.59,31.75c0,12.43-8.94,22-24,22a23.34,23.34,0,0,1,0-46.68C67.36,7.06,78.59,18.86,78.59,31.75Z"/><circle class="b" cx="22.56" cy="29.85" r="12.51"/><path class="c" d="M21.71,27.32H20.27v-.88a2.15,2.15,0,0,0,1.82-.93H23v8.4H21.71Z"/><path class="d" d="M53.18,20.47l1.91-1.91A11.85,11.85,0,0,0,44,26.2"/><path class="d" d="M65,28.49l1.91,1.91a11.84,11.84,0,0,0-7.64-11.07"/><path class="d" d="M57,40.33l-1.91,1.91A11.84,11.84,0,0,0,66.16,34.6"/><path class="d" d="M45.16,32.31,43.25,30.4a11.85,11.85,0,0,0,7.64,11.07"/><rect class="d" x="49.11" y="26.74" width="9.25" height="7.1"/><polyline class="d" points="58.37 28.56 61.05 27.15 61.05 33.41 58.5 31.98"/></svg>