<svg xmlns="http://www.w3.org/2000/svg" viewBox="0 0 86.39 66.92"><defs><style>.a{fill:#d02217;}.b{fill:#ea918f;}.c{fill:#fff;}.d,.e{fill:none;stroke:#fff;stroke-linejoin:round;}.d{stroke-linecap:round;}</style></defs><title>Subscribe-7</title><path class="a" d="M77.47,34.81c0,12.44-8.94,22-24,22a23.34,23.34,0,0,1,0-46.68C66.24,10.12,77.47,21.92,77.47,34.81Z"/><circle class="b" cx="21.44" cy="32.91" r="12.51"/><path class="c" d="M20.58,30.39H19.15V29.5A2.12,2.12,0,0,0,21,28.57h.89V37H20.58Z"/><path class="d" d="M51.93,33.8V24.38A1.43,1.43,0,0,0,50.51,23h0a1.43,1.43,0,0,0-1.42,1.42v11.5"/><path class="d" d="M54.77,31.31V28.88a1.42,1.42,0,0,0-1.42-1.41h0a1.42,1.42,0,0,0-1.42,1.41v2.43"/><path class="d" d="M57.61,33.8V30.37A1.43,1.43,0,0,0,56.19,29h0a1.43,1.43,0,0,0-1.42,1.42V33.8"/><path class="d" d="M57.61,33.2V31.86A1.42,1.42,0,0,1,59,30.44h0a1.43,1.43,0,0,1,1.42,1.42v8.07a1.34,1.34,0,0,1-.41,1l-1.44,1.41a1.13,1.13,0,0,0-.34.82"/><path class="d" d="M49.09,33.31h-2a1,1,0,0,0-1,1v6.31a1.29,1.29,0,0,0,.75,1.18l1.16.54a1.3,1.3,0,0,1,.76,1.18"/><polyline class="d" points="47.55 49.54 47.55 43.76 59.62 43.76 59.62 49.54"/><line class="e" x1="50.51" y1="17.39" x2="50.51" y2="19"/><line class="e" x1="53.41" y1="18.17" x2="52.6" y2="19.57"/><line class="e" x1="55.52" y1="20.31" x2="54.11" y2="21.11"/><line class="e" x1="56.26" y1="23.23" x2="54.64" y2="23.2"/><line class="e" x1="55.43" y1="26.12" x2="54.05" y2="25.28"/><line class="e" x1="45.41" y1="25.8" x2="46.85" y2="25.05"/><line class="e" x1="44.77" y1="22.86" x2="46.38" y2="22.94"/><line class="e" x1="45.69" y1="20" x2="47.04" y2="20.88"/><line class="e" x1="47.93" y1="18" x2="48.65" y2="19.44"/></svg>